<svg width="383" height="309" viewBox="0 0 383 309" fill="none" xmlns="http://www.w3.org/2000/svg">
<path fill-rule="evenodd" clip-rule="evenodd" d="M317.478 106.757L349.32 28.5339L241.755 69.8243V71.8415C239.022 71.9665 236.133 72.3157 233.123 72.8473C228.942 73.5856 224.664 74.8108 220.312 76.4817C214.337 78.7749 208.431 82.0857 202.64 86.2841L202.599 86.3135L202.559 86.3431C198.942 88.9906 195.576 92.0433 192.462 95.432V88.7459L104.781 122.404V128.543C97.4589 126.995 89.15 128.404 80.5252 131.715L34 149.574V280.678L90.4079 259.025V224.278C95.4631 221.437 100.305 217.912 104.781 213.579V253.508L193.804 219.335V213.276C196.608 213.99 199.6 214.296 202.774 214.16L202.899 214.155L203.025 214.147C208.753 213.78 214.574 212.507 220.446 210.252C224.799 208.582 229.076 206.523 233.257 204.051C236.245 202.285 239.087 200.477 241.755 198.619V200.928L298.163 179.275V174.581C307.062 175.421 317.068 173.449 327.741 169.352L342.187 163.807V103.67L327.741 109.216C325.354 110.132 323.689 110.319 322.481 110.197C320.658 109.905 319.437 109.336 318.596 108.685C317.936 108.088 317.651 107.49 317.506 106.887C317.493 106.836 317.484 106.792 317.478 106.757ZM325.593 53.1157L300.226 62.8535L283.716 100.954V69.1908L256.201 79.753V179.909L283.716 169.347V138.012C285.922 148.169 290.737 154.496 298.163 156.993C298.268 157.029 298.374 157.063 298.481 157.097C302.777 158.43 307.715 158.685 313.295 157.86C317.709 157.208 322.524 155.88 327.741 153.878V124.69C323.446 126.338 319.598 126.957 316.198 126.545C312.798 126.038 309.979 124.878 307.742 123.066C305.594 121.22 304.163 118.812 303.447 115.844C302.942 113.752 302.882 111.56 303.267 109.269C303.415 108.385 303.629 107.487 303.91 106.574C303.913 106.564 303.916 106.554 303.919 106.544C303.94 106.476 303.962 106.407 303.984 106.338L303.85 106.532L325.593 53.1157ZM248.632 89.9554C248.274 89.4251 247.201 89.0265 245.411 88.7596C244.362 88.515 243.144 88.3538 241.755 88.2761C240.892 88.2279 239.963 88.2118 238.968 88.228C236.463 88.2359 233.599 88.5243 230.378 89.0931C227.157 89.6619 223.801 90.6162 220.312 91.9558C215.927 93.6388 211.498 96.1022 207.024 99.3458C202.639 102.555 198.657 106.802 195.078 112.087C194.162 113.415 193.29 114.819 192.462 116.301C190.585 119.66 188.934 123.413 187.508 127.562C187.105 128.735 186.72 129.939 186.354 131.175C186.09 132.061 185.843 132.967 185.61 133.892C184.784 137.183 184.154 140.715 183.72 144.49C183.504 146.362 183.337 148.294 183.218 150.284C183.071 152.742 182.998 155.291 182.998 157.931C182.998 160.57 183.071 163.063 183.218 165.408C183.303 166.758 183.412 168.058 183.545 169.31C183.977 173.375 184.666 176.926 185.61 179.964C185.843 180.711 186.09 181.426 186.354 182.111C186.545 182.579 186.74 183.035 186.939 183.481C188.861 187.786 191.15 191.079 193.804 193.361C194.22 193.718 194.644 194.05 195.078 194.358C198.657 196.799 202.684 197.924 207.158 197.733C211.632 197.446 216.061 196.462 220.446 194.778C223.936 193.439 227.291 191.817 230.512 189.913C233.734 188.008 236.597 186.146 239.103 184.326C240.046 183.617 240.93 182.931 241.755 182.268C243.199 181.106 244.463 180.014 245.545 178.991C247.245 177.385 248.274 176.227 248.632 175.517V150.478C248.006 151.1 246.932 152.085 245.411 153.432C244.361 154.394 243.142 155.422 241.755 156.514C241.251 156.911 240.725 157.316 240.176 157.73C238.336 159.15 236.339 160.588 234.186 162.045C234.036 162.146 233.885 162.248 233.734 162.35C231.407 163.815 229.081 164.994 226.754 165.887C224.517 166.746 222.37 167.189 220.312 167.216C218.253 167.243 216.419 166.659 214.808 165.465C213.198 164.175 211.9 162.146 210.916 159.376C210.021 156.476 209.574 152.594 209.574 147.729C209.574 142.865 210.021 138.687 210.916 135.195C211.9 131.574 213.198 128.549 214.808 126.118C216.419 123.592 218.253 121.552 220.312 119.999C222.37 118.446 224.517 117.24 226.754 116.382C229.081 115.489 231.407 114.882 233.734 114.561C233.885 114.54 234.036 114.52 234.186 114.501C236.339 114.227 238.336 114.138 240.176 114.234C240.725 114.227 241.251 114.228 241.755 114.238C243.142 114.265 244.361 114.357 245.411 114.514C246.932 114.693 248.006 114.853 248.632 114.994V89.9554ZM224.701 134.536C224.378 135.868 224.02 138.327 224.02 142.184C224.02 145.92 224.355 148.19 224.704 149.447C224.97 150.145 225.204 150.547 225.354 150.762C225.767 150.724 226.221 150.618 226.754 150.413C227.893 149.976 229.061 149.397 230.273 148.651C232.145 147.387 233.803 146.191 235.26 145.067L235.355 144.993L235.451 144.921C237.118 143.664 238.255 142.709 238.975 142.048L239.129 141.908L239.284 141.77C239.979 141.155 240.518 140.669 240.922 140.3C241.291 139.961 241.46 139.798 241.488 139.771C241.493 139.766 241.494 139.765 241.491 139.768L241.755 139.506V131.246L241.491 131.187C241.51 131.191 241.352 131.157 240.921 131.093C240.518 131.032 239.978 130.961 239.284 130.879L239.129 130.861L238.975 130.838C238.255 130.731 237.118 130.649 235.451 130.671L235.086 130.676L234.729 130.657C233.56 130.596 232.162 130.655 230.5 130.884C229.207 131.062 227.964 131.391 226.754 131.856C226.253 132.048 225.822 132.274 225.429 132.532L225.399 132.578L225.368 132.626C225.349 132.665 225.322 132.724 225.286 132.806C225.154 133.115 224.943 133.674 224.701 134.536ZM179.358 182.364L146.742 194.884V183.437L173.318 173.236V148.483L146.742 158.685V148.812L178.016 136.807V109.765L119.227 132.332V232.488L179.358 209.406V182.364ZM110.188 184.878C112.694 179.052 113.946 173.277 113.946 167.554C113.946 161.735 112.694 156.875 110.188 152.972C108.809 150.724 107.006 148.902 104.781 147.507C103.109 146.459 101.198 145.652 99.0477 145.086C94.1263 143.637 87.9521 144.338 80.5252 147.189L48.4463 159.503V259.658L75.9616 249.096V215.186L80.5252 213.434C87.9521 210.584 94.1263 206.592 99.0477 201.46C101.198 199.202 103.109 196.896 104.781 194.541C107.006 191.406 108.809 188.185 110.188 184.878ZM84.9545 174.533C85.9388 175.396 86.3862 176.607 86.2967 178.168C86.2967 179.598 85.7598 181.188 84.686 182.935C83.7017 184.553 82.3148 185.705 80.5252 186.392L75.9616 188.144V175.982L80.5252 174.231C82.5832 173.441 84.0597 173.542 84.9545 174.533Z" fill="black"/>
</svg>
